# xmcd CD database file
#
# Track frame offsets:
#	150
#	25065
#	51953
#	74416
#	100629
#	125792
#	151180
#
# Disc length: 2384 seconds
#
# Revision: 0
# Processed by: cddbd v1.5.2PL0 Copyright (c) Steve Scherf et al.
# Submitted via: CD2WAV32(JP) R3.22
#
DISCID=57094e07
DTITLE=今井美樹 - I Love a Piano
DYEAR=2008
DGENRE=JPop
TTITLE0=瞳がほほえむから with 河野圭
TTITLE1=年下の水夫 with 小曽根真
TTITLE2=春の日 with 武部聡志
TTITLE3=Goodbye Yesterday with 倉田信雄
TTITLE4=遠い街から with 川江美奈子
TTITLE5=ルパン三世 愛のテーマ with 大野雄二
TTITLE6=PRIDE with 塩谷哲
EXTD=
EXTT0=
EXTT1=
EXTT2=
EXTT3=
EXTT4=
EXTT5=
EXTT6=
PLAYORDER=
